<svg width="130" height="40" viewBox="0 0 130 40" fill="none" xmlns="http://www.w3.org/2000/svg">
<rect x="0.5" y="0.5" width="129" height="39" rx="5.5" fill="black"/>
<path fill-rule="evenodd" clip-rule="evenodd" d="M25.7689 20.5804C25.7907 18.8839 26.6801 17.3169 28.1254 16.4284C27.2095 15.1202 25.7304 14.3206 24.1343 14.2707C22.455 14.0944 20.8271 15.2755 19.9714 15.2755C19.0991 15.2755 17.7816 14.2882 16.3629 14.3174C14.4962 14.3777 12.7981 15.4133 11.89 17.0452C9.95596 20.3937 11.3985 25.3147 13.2512 28.0213C14.1781 29.3467 15.2613 30.8271 16.6788 30.7746C18.0658 30.7171 18.5839 29.8901 20.2582 29.8901C21.917 29.8901 22.403 30.7746 23.8492 30.7412C25.3376 30.7171 26.2753 29.41 27.1697 28.0721C27.8357 27.1277 28.3481 26.084 28.6881 24.9796C26.9204 24.2319 25.7709 22.4998 25.7689 20.5804Z" fill="white"/>
<path fill-rule="evenodd" clip-rule="evenodd" d="M23.0372 12.4906C23.8488 11.5164 24.2486 10.2642 24.1518 9C22.9119 9.13022 21.7667 9.72278 20.9442 10.6596C20.132 11.5839 19.7206 12.7932 19.8005 14.021C21.0569 14.0339 22.2499 13.4699 23.0372 12.4906Z" fill="white"/>
<path d="M41.557 13.78V8.794H42.997C43.393 8.794 43.726 8.851 43.996 8.965C44.266 9.073 44.485 9.235 44.653 9.451C44.827 9.661 44.95 9.919 45.022 10.225C45.1 10.525 45.139 10.867 45.139 11.251C45.139 11.647 45.097 11.986 45.013 12.268C44.935 12.544 44.833 12.775 44.707 12.961C44.581 13.147 44.437 13.294 44.275 13.402C44.119 13.51 43.96 13.594 43.798 13.654C43.636 13.708 43.483 13.744 43.339 13.762C43.195 13.774 43.075 13.78 42.979 13.78H41.557ZM40.702 8.074V14.5H42.907C43.441 14.5 43.903 14.425 44.293 14.275C44.683 14.125 45.004 13.909 45.256 13.627C45.508 13.339 45.694 12.988 45.814 12.574C45.934 12.154 45.994 11.674 45.994 11.134C45.994 10.102 45.727 9.334 45.193 8.83C44.659 8.326 43.897 8.074 42.907 8.074H40.702ZM47.6509 12.178C47.6509 11.896 47.6869 11.647 47.7589 11.431C47.8369 11.209 47.9419 11.023 48.0739 10.873C48.2059 10.723 48.3589 10.609 48.5329 10.531C48.7129 10.453 48.9019 10.414 49.0999 10.414C49.2979 10.414 49.4839 10.453 49.6579 10.531C49.8379 10.609 49.9939 10.723 50.1259 10.873C50.2579 11.023 50.3599 11.209 50.4319 11.431C50.5099 11.647 50.5489 11.896 50.5489 12.178C50.5489 12.46 50.5099 12.712 50.4319 12.934C50.3599 13.15 50.2579 13.333 50.1259 13.483C49.9939 13.627 49.8379 13.738 49.6579 13.816C49.4839 13.894 49.2979 13.933 49.0999 13.933C48.9019 13.933 48.7129 13.894 48.5329 13.816C48.3589 13.738 48.2059 13.627 48.0739 13.483C47.9419 13.333 47.8369 13.15 47.7589 12.934C47.6869 12.712 47.6509 12.46 47.6509 12.178ZM46.8409 12.178C46.8409 12.52 46.8889 12.838 46.9849 13.132C47.0809 13.426 47.2249 13.684 47.4169 13.906C47.6089 14.122 47.8459 14.293 48.1279 14.419C48.4099 14.539 48.7339 14.599 49.0999 14.599C49.4719 14.599 49.7959 14.539 50.0719 14.419C50.3539 14.293 50.5909 14.122 50.7829 13.906C50.9749 13.684 51.1189 13.426 51.2149 13.132C51.3109 12.838 51.3589 12.52 51.3589 12.178C51.3589 11.836 51.3109 11.518 51.2149 11.224C51.1189 10.924 50.9749 10.666 50.7829 10.45C50.5909 10.228 50.3539 10.054 50.0719 9.928C49.7959 9.802 49.4719 9.739 49.0999 9.739C48.7339 9.739 48.4099 9.802 48.1279 9.928C47.8459 10.054 47.6089 10.228 47.4169 10.45C47.2249 10.666 47.0809 10.924 46.9849 11.224C46.8889 11.518 46.8409 11.836 46.8409 12.178ZM57.0489 14.5L58.5339 9.847H57.7419L56.6979 13.654H56.6799L55.7079 9.847H54.8709L53.9349 13.654H53.9169L52.8639 9.847H52.0179L53.5119 14.5H54.3399L55.2759 10.801H55.2939L56.2389 14.5H57.0489ZM59.4412 9.847V14.5H60.2062V11.872C60.2062 11.662 60.2332 11.47 60.2872 11.296C60.3472 11.116 60.4342 10.96 60.5482 10.828C60.6622 10.696 60.8032 10.594 60.9712 10.522C61.1452 10.45 61.3492 10.414 61.5832 10.414C61.8772 10.414 62.1082 10.498 62.2762 10.666C62.4442 10.834 62.5282 11.062 62.5282 11.35V14.5H63.2932V11.44C63.2932 11.188 63.2662 10.96 63.2122 10.756C63.1642 10.546 63.0772 10.366 62.9512 10.216C62.8252 10.066 62.6602 9.949 62.4562 9.865C62.2522 9.781 61.9972 9.739 61.6912 9.739C61.0012 9.739 60.4972 10.021 60.1792 10.585H60.1612V9.847H59.4412ZM64.6672 8.074V14.5H65.4322V8.074H64.6672ZM67.3553 12.178C67.3553 11.896 67.3913 11.647 67.4633 11.431C67.5413 11.209 67.6463 11.023 67.7783 10.873C67.9103 10.723 68.0633 10.609 68.2373 10.531C68.4173 10.453 68.6063 10.414 68.8043 10.414C69.0023 10.414 69.1883 10.453 69.3623 10.531C69.5423 10.609 69.6983 10.723 69.8303 10.873C69.9623 11.023 70.0643 11.209 70.1363 11.431C70.2143 11.647 70.2533 11.896 70.2533 12.178C70.2533 12.46 70.2143 12.712 70.1363 12.934C70.0643 13.15 69.9623 13.333 69.8303 13.483C69.6983 13.627 69.5423 13.738 69.3623 13.816C69.1883 13.894 69.0023 13.933 68.8043 13.933C68.6063 13.933 68.4173 13.894 68.2373 13.816C68.0633 13.738 67.9103 13.627 67.7783 13.483C67.6463 13.333 67.5413 13.15 67.4633 12.934C67.3913 12.712 67.3553 12.46 67.3553 12.178ZM66.5453 12.178C66.5453 12.52 66.5933 12.838 66.6893 13.132C66.7853 13.426 66.9293 13.684 67.1213 13.906C67.3133 14.122 67.5503 14.293 67.8323 14.419C68.1143 14.539 68.4383 14.599 68.8043 14.599C69.1763 14.599 69.5003 14.539 69.7763 14.419C70.0583 14.293 70.2953 14.122 70.4873 13.906C70.6793 13.684 70.8233 13.426 70.9193 13.132C71.0153 12.838 71.0633 12.52 71.0633 12.178C71.0633 11.836 71.0153 11.518 70.9193 11.224C70.8233 10.924 70.6793 10.666 70.4873 10.45C70.2953 10.228 70.0583 10.054 69.7763 9.928C69.5003 9.802 69.1763 9.739 68.8043 9.739C68.4383 9.739 68.1143 9.802 67.8323 9.928C67.5503 10.054 67.3133 10.228 67.1213 10.45C66.9293 10.666 66.7853 10.924 66.6893 11.224C66.5933 11.518 66.5453 11.836 66.5453 12.178ZM76.2673 14.482C76.1353 14.56 75.9523 14.599 75.7183 14.599C75.5203 14.599 75.3613 14.545 75.2413 14.437C75.1273 14.323 75.0703 14.14 75.0703 13.888C74.8603 14.14 74.6143 14.323 74.3323 14.437C74.0563 14.545 73.7563 14.599 73.4323 14.599C73.2223 14.599 73.0213 14.575 72.8293 14.527C72.6433 14.479 72.4813 14.404 72.3433 14.302C72.2053 14.2 72.0943 14.068 72.0103 13.906C71.9323 13.738 71.8933 13.537 71.8933 13.303C71.8933 13.039 71.9383 12.823 72.0283 12.655C72.1183 12.487 72.2353 12.352 72.3793 12.25C72.5293 12.142 72.6973 12.061 72.8833 12.007C73.0753 11.953 73.2703 11.908 73.4683 11.872C73.6783 11.83 73.8763 11.8 74.0623 11.782C74.2543 11.758 74.4223 11.728 74.5663 11.692C74.7103 11.65 74.8243 11.593 74.9083 11.521C74.9923 11.443 75.0343 11.332 75.0343 11.188C75.0343 11.02 75.0013 10.885 74.9353 10.783C74.8753 10.681 74.7943 10.603 74.6923 10.549C74.5963 10.495 74.4853 10.459 74.3593 10.441C74.2393 10.423 74.1193 10.414 73.9993 10.414C73.6753 10.414 73.4053 10.477 73.1893 10.603C72.9733 10.723 72.8563 10.954 72.8383 11.296H72.0733C72.0853 11.008 72.1453 10.765 72.2533 10.567C72.3613 10.369 72.5053 10.21 72.6853 10.09C72.8653 9.964 73.0693 9.874 73.2973 9.82C73.5313 9.766 73.7803 9.739 74.0443 9.739C74.2543 9.739 74.4613 9.754 74.6653 9.784C74.8753 9.814 75.0643 9.877 75.2323 9.973C75.4003 10.063 75.5353 10.192 75.6373 10.36C75.7393 10.528 75.7903 10.747 75.7903 11.017V13.411C75.7903 13.591 75.7993 13.723 75.8173 13.807C75.8413 13.891 75.9133 13.933 76.0333 13.933C76.0993 13.933 76.1773 13.918 76.2673 13.888V14.482ZM75.0253 12.097C74.9293 12.169 74.8033 12.223 74.6473 12.259C74.4913 12.289 74.3263 12.316 74.1523 12.34C73.9843 12.358 73.8133 12.382 73.6393 12.412C73.4653 12.436 73.3093 12.478 73.1713 12.538C73.0333 12.598 72.9193 12.685 72.8293 12.799C72.7453 12.907 72.7033 13.057 72.7033 13.249C72.7033 13.375 72.7273 13.483 72.7753 13.573C72.8293 13.657 72.8953 13.726 72.9733 13.78C73.0573 13.834 73.1533 13.873 73.2613 13.897C73.3693 13.921 73.4833 13.933 73.6033 13.933C73.8553 13.933 74.0713 13.9 74.2513 13.834C74.4313 13.762 74.5783 13.675 74.6923 13.573C74.8063 13.465 74.8903 13.351 74.9443 13.231C74.9983 13.105 75.0253 12.988 75.0253 12.88V12.097ZM77.7172 12.214C77.7172 11.986 77.7412 11.764 77.7892 11.548C77.8372 11.332 77.9152 11.14 78.0232 10.972C78.1312 10.804 78.2752 10.669 78.4552 10.567C78.6352 10.465 78.8542 10.414 79.1122 10.414C79.3762 10.414 79.6012 10.465 79.7872 10.567C79.9732 10.663 80.1232 10.792 80.2372 10.954C80.3572 11.116 80.4442 11.305 80.4982 11.521C80.5522 11.731 80.5792 11.95 80.5792 12.178C80.5792 12.394 80.5522 12.607 80.4982 12.817C80.4502 13.027 80.3692 13.216 80.2552 13.384C80.1412 13.546 79.9942 13.678 79.8142 13.78C79.6342 13.882 79.4152 13.933 79.1572 13.933C78.9112 13.933 78.6952 13.885 78.5092 13.789C78.3292 13.693 78.1792 13.564 78.0592 13.402C77.9452 13.24 77.8582 13.057 77.7982 12.853C77.7442 12.643 77.7172 12.43 77.7172 12.214ZM81.3172 14.5V8.074H80.5522V10.468H80.5342C80.4502 10.33 80.3452 10.216 80.2192 10.126C80.0992 10.03 79.9702 9.955 79.8322 9.901C79.6942 9.841 79.5562 9.799 79.4182 9.775C79.2802 9.751 79.1512 9.739 79.0312 9.739C78.6772 9.739 78.3652 9.805 78.0952 9.937C77.8312 10.063 77.6092 10.237 77.4292 10.459C77.2552 10.675 77.1232 10.93 77.0332 11.224C76.9492 11.518 76.9072 11.83 76.9072 12.16C76.9072 12.49 76.9522 12.802 77.0422 13.096C77.1322 13.39 77.2642 13.648 77.4382 13.87C77.6182 14.092 77.8402 14.269 78.1042 14.401C78.3742 14.533 78.6892 14.599 79.0492 14.599C79.3732 14.599 79.6702 14.542 79.9402 14.428C80.2102 14.314 80.4082 14.128 80.5342 13.87H80.5522V14.5H81.3172ZM85.9171 12.178C85.9171 11.896 85.9531 11.647 86.0251 11.431C86.1031 11.209 86.2081 11.023 86.3401 10.873C86.4721 10.723 86.6251 10.609 86.7991 10.531C86.9791 10.453 87.1681 10.414 87.3661 10.414C87.5641 10.414 87.7501 10.453 87.9241 10.531C88.1041 10.609 88.2601 10.723 88.3921 10.873C88.5241 11.023 88.6261 11.209 88.6981 11.431C88.7761 11.647 88.8151 11.896 88.8151 12.178C88.8151 12.46 88.7761 12.712 88.6981 12.934C88.6261 13.15 88.5241 13.333 88.3921 13.483C88.2601 13.627 88.1041 13.738 87.9241 13.816C87.7501 13.894 87.5641 13.933 87.3661 13.933C87.1681 13.933 86.9791 13.894 86.7991 13.816C86.6251 13.738 86.4721 13.627 86.3401 13.483C86.2081 13.333 86.1031 13.15 86.0251 12.934C85.9531 12.712 85.9171 12.46 85.9171 12.178ZM85.1071 12.178C85.1071 12.52 85.1551 12.838 85.2511 13.132C85.3471 13.426 85.4911 13.684 85.6831 13.906C85.8751 14.122 86.1121 14.293 86.3941 14.419C86.6761 14.539 87.0001 14.599 87.3661 14.599C87.7381 14.599 88.0621 14.539 88.3381 14.419C88.6201 14.293 88.8571 14.122 89.0491 13.906C89.2411 13.684 89.3851 13.426 89.4811 13.132C89.5771 12.838 89.6251 12.52 89.6251 12.178C89.6251 11.836 89.5771 11.518 89.4811 11.224C89.3851 10.924 89.2411 10.666 89.0491 10.45C88.8571 10.228 88.6201 10.054 88.3381 9.928C88.0621 9.802 87.7381 9.739 87.3661 9.739C87.0001 9.739 86.6761 9.802 86.3941 9.928C86.1121 10.054 85.8751 10.228 85.6831 10.45C85.4911 10.666 85.3471 10.924 85.2511 11.224C85.1551 11.518 85.1071 11.836 85.1071 12.178ZM90.7071 9.847V14.5H91.4721V11.872C91.4721 11.662 91.4991 11.47 91.5531 11.296C91.6131 11.116 91.7001 10.96 91.8141 10.828C91.9281 10.696 92.0691 10.594 92.2371 10.522C92.4111 10.45 92.6151 10.414 92.8491 10.414C93.1431 10.414 93.3741 10.498 93.5421 10.666C93.7101 10.834 93.7941 11.062 93.7941 11.35V14.5H94.5591V11.44C94.5591 11.188 94.5321 10.96 94.4781 10.756C94.4301 10.546 94.3431 10.366 94.2171 10.216C94.0911 10.066 93.9261 9.949 93.7221 9.865C93.5181 9.781 93.2631 9.739 92.9571 9.739C92.2671 9.739 91.7631 10.021 91.4451 10.585H91.4271V9.847H90.7071ZM99.6349 9.847V8.452H98.8699V9.847H98.0779V10.522H98.8699V13.483C98.8699 13.699 98.8909 13.873 98.9329 14.005C98.9749 14.137 99.0379 14.239 99.1219 14.311C99.2119 14.383 99.3259 14.434 99.4639 14.464C99.6079 14.488 99.7789 14.5 99.9769 14.5H100.562V13.825H100.211C100.091 13.825 99.9919 13.822 99.9139 13.816C99.8419 13.804 99.7849 13.783 99.7429 13.753C99.7009 13.723 99.6709 13.681 99.6529 13.627C99.6409 13.573 99.6349 13.501 99.6349 13.411V10.522H100.562V9.847H99.6349ZM101.592 8.074V14.5H102.357V11.872C102.357 11.662 102.384 11.47 102.438 11.296C102.498 11.116 102.585 10.96 102.699 10.828C102.813 10.696 102.954 10.594 103.122 10.522C103.296 10.45 103.5 10.414 103.734 10.414C104.028 10.414 104.259 10.498 104.427 10.666C104.595 10.834 104.679 11.062 104.679 11.35V14.5H105.444V11.44C105.444 11.188 105.417 10.96 105.363 10.756C105.315 10.546 105.228 10.366 105.102 10.216C104.976 10.066 104.811 9.949 104.607 9.865C104.403 9.781 104.148 9.739 103.842 9.739C103.704 9.739 103.56 9.754 103.41 9.784C103.266 9.814 103.125 9.862 102.987 9.928C102.855 9.988 102.735 10.069 102.627 10.171C102.519 10.267 102.435 10.387 102.375 10.531H102.357V8.074H101.592ZM110.004 11.728H107.331C107.343 11.548 107.382 11.38 107.448 11.224C107.514 11.062 107.604 10.921 107.718 10.801C107.832 10.681 107.967 10.588 108.123 10.522C108.285 10.45 108.465 10.414 108.663 10.414C108.855 10.414 109.029 10.45 109.185 10.522C109.347 10.588 109.485 10.681 109.599 10.801C109.719 10.915 109.812 11.053 109.878 11.215C109.95 11.377 109.992 11.548 110.004 11.728ZM110.742 13.024H109.986C109.92 13.33 109.782 13.558 109.572 13.708C109.368 13.858 109.104 13.933 108.78 13.933C108.528 13.933 108.309 13.891 108.123 13.807C107.937 13.723 107.784 13.612 107.664 13.474C107.544 13.33 107.457 13.168 107.403 12.988C107.349 12.802 107.325 12.607 107.331 12.403H110.814C110.826 12.121 110.799 11.824 110.733 11.512C110.673 11.2 110.559 10.912 110.391 10.648C110.229 10.384 110.01 10.168 109.734 10C109.464 9.826 109.122 9.739 108.708 9.739C108.39 9.739 108.096 9.799 107.826 9.919C107.562 10.039 107.331 10.207 107.133 10.423C106.941 10.639 106.791 10.894 106.683 11.188C106.575 11.482 106.521 11.806 106.521 12.16C106.533 12.514 106.584 12.841 106.674 13.141C106.77 13.441 106.911 13.699 107.097 13.915C107.283 14.131 107.511 14.299 107.781 14.419C108.057 14.539 108.381 14.599 108.753 14.599C109.281 14.599 109.719 14.467 110.067 14.203C110.415 13.939 110.64 13.546 110.742 13.024Z" fill="white"/>
<path d="M56.9199 21.9766C59.2177 21.9766 60.7324 23.793 60.7324 26.5987C60.7324 29.4122 59.2266 31.2198 56.9541 31.2198C55.7795 31.2812 54.6731 30.666 54.1055 29.6358H54.0625V34.1202H52.2041V22.0713H54.0029V23.5772H54.0371C54.6299 22.5534 55.7375 21.9385 56.9199 21.9766ZM66.8847 21.9766C69.1826 21.9766 70.6973 23.793 70.6973 26.5987C70.6973 29.4122 69.1914 31.2198 66.9189 31.2198C65.7443 31.2812 64.6379 30.666 64.0703 29.6358H64.0273V34.1202H62.1689V22.0713H63.9677V23.5772H64.0019C64.5947 22.5534 65.7023 21.9385 66.8847 21.9766ZM80.2266 18.5C82.8506 18.5 84.6494 19.9717 84.71 22.1143H82.834C82.7217 20.875 81.6972 20.127 80.2002 20.127C78.7031 20.127 77.6787 20.8838 77.6787 21.9854C77.6787 22.8633 78.333 23.3799 79.9336 23.7754L81.3017 24.1113C83.8496 24.7138 84.9082 25.7373 84.9082 27.5537C84.9082 29.8769 83.0576 31.332 80.1142 31.332C77.3603 31.332 75.501 29.9111 75.3808 27.665L77.2832 27.6651C77.4209 28.8965 78.6172 29.7051 80.2519 29.7051C81.8184 29.7051 82.9453 28.8965 82.9453 27.7861C82.9453 26.8223 82.2656 26.2451 80.6562 25.8496L79.0469 25.4619C76.7666 24.9111 75.708 23.8447 75.708 22.1143C75.708 19.9717 77.5752 18.5 80.2266 18.5ZM95.9317 21.96C98.5567 21.96 100.227 23.75 100.227 26.5987C100.227 29.4551 98.5655 31.2374 95.9317 31.2374C93.2988 31.2374 91.6377 29.4551 91.6377 26.5987C91.6377 23.7501 93.3155 21.96 95.9317 21.96ZM110.98 21.96C113.485 21.96 115.061 23.6807 115.061 26.4258V27.0625H108.666V27.1749C108.606 27.8489 108.839 28.5161 109.305 29.0067C109.771 29.4974 110.425 29.7642 111.102 29.7393C112.003 29.8238 112.854 29.3059 113.192 28.4659L114.957 28.4659C114.707 30.1094 113.106 31.2374 111.059 31.2374C108.425 31.2374 106.79 29.4727 106.79 26.6416C106.79 23.8018 108.434 21.96 110.98 21.96ZM88.9189 19.9288V22.0713H90.6406V23.543H88.9189V28.5342C88.9189 29.3096 89.2637 29.6709 90.0205 29.6709C90.2249 29.6674 90.429 29.653 90.6318 29.6279V31.0908C90.2916 31.1544 89.9457 31.1832 89.5996 31.1768C87.7666 31.1768 87.0518 30.4883 87.0518 28.7324V23.543H85.7354V22.0713H87.0517V19.9288H88.9189ZM46.5664 18.7071L51.0498 31.1251H49.0107L47.875 27.7686H43.1416L42.0049 31.1251H40L44.4834 18.7071H46.5664ZM105.752 21.9766C105.966 21.9759 106.18 21.9991 106.389 22.0459V23.7842C106.118 23.7016 105.836 23.6637 105.554 23.6719C105.007 23.6498 104.479 23.8675 104.106 24.268C103.734 24.6684 103.555 25.2116 103.617 25.7549V31.125H101.759V22.0713H103.531V23.6123H103.574C103.821 22.6203 104.73 21.9376 105.752 21.9766ZM95.9317 23.4913C94.4258 23.4913 93.5313 24.6534 93.5313 26.5987C93.5313 28.5606 94.4258 29.7051 95.9317 29.7051C97.4375 29.7051 98.333 28.5606 98.333 26.5987C98.333 24.6446 97.4375 23.4913 95.9317 23.4913ZM56.4297 23.5606C55.0098 23.5606 54.0547 24.7911 54.0547 26.5987C54.0547 28.4229 55.0098 29.6446 56.4297 29.6446C57.875 29.6446 58.8223 28.4483 58.8223 26.5987C58.8223 24.7657 57.875 23.5606 56.4297 23.5606ZM66.3945 23.5606C64.9746 23.5606 64.0195 24.7911 64.0195 26.5987C64.0195 28.4229 64.9746 29.6446 66.3945 29.6446C67.8398 29.6446 68.7871 28.4483 68.7871 26.5987C68.7871 24.7657 67.8398 23.5606 66.3945 23.5606ZM45.5342 20.7725H45.4825L43.6318 26.2198H47.3838L45.5342 20.7725ZM110.98 23.4659C110.369 23.4622 109.782 23.7029 109.349 24.1344C108.916 24.5659 108.673 25.1525 108.675 25.7637H113.201C113.235 25.1581 113.014 24.5658 112.593 24.1296C112.171 23.6934 111.587 23.4528 110.98 23.4659Z" fill="white"/>
<rect x="0.5" y="0.5" width="129" height="39" rx="5.5" stroke="#A6A6A6"/>
</svg>
