<svg width="265" height="213" viewBox="0 0 265 213" fill="none" xmlns="http://www.w3.org/2000/svg">
<path fill-rule="evenodd" clip-rule="evenodd" d="M140.784 36.2534C132.74 31.6089 122.828 31.6089 114.784 36.2534L28.0769 86.3137C20.0325 90.9581 15.0769 99.5414 15.0769 108.83V208.951C15.0769 209.97 15.1365 210.98 15.2533 211.978H240.315C240.431 210.98 240.491 209.97 240.491 208.951V108.83C240.491 99.5414 235.535 90.9581 227.491 86.3137L140.784 36.2534Z" fill="url(#paint0_linear_4626_150245)"/>
<path d="M117.532 131.015L115.515 146.814L135.011 133.368L124.255 111.182L100.764 97.4541C99.5184 96.726 97.9173 97.3043 97.4241 98.6604C96.3596 101.588 97.0696 104.867 99.2499 107.092L112.153 120.258L117.532 131.015Z" fill="url(#paint1_linear_4626_150245)"/>
<path d="M117.532 131.015L115.515 146.814L135.011 133.368L124.255 111.182L100.764 97.4541C99.5184 96.726 97.9173 97.3043 97.4241 98.6604C96.3596 101.588 97.0696 104.867 99.2499 107.092L112.153 120.258L117.532 131.015Z" fill="url(#paint2_radial_4626_150245)" fill-opacity="0.2"/>
<path d="M117.532 131.015L115.515 146.814L135.011 133.368L124.255 111.182L100.764 97.4541C99.5184 96.726 97.9173 97.3043 97.4241 98.6604C96.3596 101.588 97.0696 104.867 99.2499 107.092L112.153 120.258L117.532 131.015Z" fill="url(#paint3_radial_4626_150245)" fill-opacity="0.2"/>
<path d="M123.921 103.451L129.636 125.972L138.039 141.099L165.267 120.594L149.132 74.542L113.165 76.5589L123.921 103.451Z" fill="url(#paint4_linear_4626_150245)"/>
<path d="M116.601 0.102219L173.757 15.3272L149.807 105.239L92.6508 90.0143L116.189 0.104485L116.601 0.102219Z" fill="#C2C2C2"/>
<rect x="116.091" y="0.104492" width="59.1493" height="93.0473" transform="rotate(14.9158 116.091 0.104492)" fill="#F9FAFB"/>
<rect x="116.091" y="0.104492" width="59.1493" height="93.0473" transform="rotate(14.9158 116.091 0.104492)" fill="url(#paint5_radial_4626_150245)" fill-opacity="0.5"/>
<rect x="116.091" y="0.104492" width="59.1493" height="93.0473" transform="rotate(14.9158 116.091 0.104492)" fill="url(#paint6_radial_4626_150245)" fill-opacity="0.5"/>
<rect x="116.091" y="0.104492" width="59.1493" height="93.0473" transform="rotate(14.9158 116.091 0.104492)" fill="url(#paint7_linear_4626_150245)" fill-opacity="0.5"/>
<rect width="44.5477" height="70.0777" transform="matrix(-0.966305 0.257399 0.257399 0.966305 246.847 61.4468)" fill="#F9FAFB"/>
<rect x="15.0229" y="56.8154" width="37.1015" height="58.3641" transform="rotate(14.9158 15.0229 56.8154)" fill="#D0D5DD"/>
<path d="M141.401 184.799L130.458 211.991H83.978L88.1854 182.764C89.1329 176.182 91.8851 169.99 96.1367 164.877L114.509 142.78L154.511 122.275V99.4173L145.619 73.0032C144.248 68.9317 146.622 64.5529 150.782 63.4794C152.357 63.073 153.997 63.8521 154.677 65.3298L170.982 100.762L174.943 144.028C175.203 146.87 174.237 149.687 172.288 151.77L141.401 184.799Z" fill="url(#paint8_linear_4626_150245)"/>
<path d="M141.4 184.799L130.307 212.363L84.3267 211.449L88.2353 182.906C89.149 176.234 91.9157 169.952 96.221 164.774L114.508 142.78L154.51 122.275V99.4173L145.618 73.0032C144.247 68.9317 146.621 64.5529 150.781 63.4794C152.356 63.073 153.996 63.8521 154.676 65.3298L170.981 100.762L174.942 144.028C175.202 146.87 174.236 149.687 172.287 151.77L141.4 184.799Z" fill="url(#paint9_radial_4626_150245)" fill-opacity="0.2"/>
<path d="M151.146 110.51L150.177 124.286C148.875 142.803 139.344 159.763 124.205 170.504L98.3706 188.832V175.722L114.842 142.444L127.952 133.032L131.313 112.863L133.024 95.7517C133.224 93.7545 133.987 91.8551 135.224 90.2745L136.74 88.3366C138.351 86.2782 141.008 85.3385 143.555 85.9262C146.299 86.5594 148.359 88.8338 148.718 91.6269L151.146 110.51Z" fill="url(#paint10_linear_4626_150245)"/>
<path d="M151.146 110.51L150.177 124.286C148.875 142.803 139.344 159.763 124.205 170.504L98.3706 188.832V175.722L114.842 142.444L127.952 133.032L131.313 112.863L133.024 95.7517C133.224 93.7545 133.987 91.8551 135.224 90.2745L136.74 88.3366C138.351 86.2782 141.008 85.3385 143.555 85.9262C146.299 86.5594 148.359 88.8338 148.718 91.6269L151.146 110.51Z" fill="url(#paint11_linear_4626_150245)"/>
<path d="M151.146 110.51L150.177 124.286C148.875 142.803 139.344 159.763 124.205 170.504L98.3706 188.832V175.722L114.842 142.444L127.952 133.032L131.313 112.863L133.024 95.7517C133.224 93.7545 133.987 91.8551 135.224 90.2745L136.74 88.3366C138.351 86.2782 141.008 85.3385 143.555 85.9262C146.299 86.5594 148.359 88.8338 148.718 91.6269L151.146 110.51Z" fill="url(#paint12_radial_4626_150245)" fill-opacity="0.2"/>
<path d="M138.372 97.587C137.027 96.5114 136.917 90.528 138.038 86.8304C144.425 83.469 147.449 88.175 148.458 88.8473C149.265 89.3851 148.122 95.3461 147.449 98.2594C144.312 99.0437 139.717 98.6627 138.372 97.587Z" fill="#9568F8"/>
<path d="M112.121 54.0475C125.793 51.9734 131.824 47.1793 133.13 45.0416C134.91 43.9561 138.03 42.9625 136.28 47.6714C134.092 53.5575 122.105 59.621 109.32 59.2067C96.5357 58.7923 94.1764 66.6881 87.5062 65.7825C80.8361 64.877 68.6705 76.9978 76.2537 67.1855C83.8369 57.3732 95.0323 56.6401 112.121 54.0475Z" fill="#D9D6FE"/>
<path d="M112.121 54.0475C125.793 51.9734 131.824 47.1793 133.13 45.0416C134.91 43.9561 138.03 42.9625 136.28 47.6714C134.092 53.5575 122.105 59.621 109.32 59.2067C96.5357 58.7923 94.1764 66.6881 87.5062 65.7825C80.8361 64.877 68.6705 76.9978 76.2537 67.1855C83.8369 57.3732 95.0323 56.6401 112.121 54.0475Z" fill="url(#paint13_linear_4626_150245)"/>
<path fill-rule="evenodd" clip-rule="evenodd" d="M85.0808 60.0165C81.6849 61.6728 78.7703 63.9293 76.2536 67.1859C72.3386 72.2517 73.6874 71.4715 76.8261 69.656C79.7671 67.9549 84.2795 65.3448 87.5061 65.7829C90.4243 66.1791 92.5174 64.8906 95.0193 63.3505C98.2361 61.3703 102.129 58.974 109.32 59.2071C121.177 59.5914 132.348 54.4035 135.652 48.9529C129.956 52.1314 121.018 54.4256 111.612 54.1248C110.185 54.3399 108.799 54.5425 107.453 54.7393C104.344 55.1939 101.45 55.6171 98.7533 56.0891C97.3733 56.6536 96.1622 57.2715 95.0261 57.851C92.2152 59.285 89.8638 60.4846 86.552 60.0616C86.0825 60.0016 85.5899 59.9892 85.0808 60.0165Z" fill="#E9D7FE"/>
<path d="M138.375 56.9132C144.56 49.1146 142.969 45.1481 141.4 44.1396C140.392 47.9493 135.618 55.8375 124.593 56.9132C110.811 58.2578 97.0287 65.653 91.9865 69.3506C87.9527 72.3087 88.2888 79.9953 88.9611 83.4688C90.5298 80.2194 93.8689 74.2584 94.6756 76.4097C95.4824 78.5611 93.219 85.1495 91.9865 88.1748C93.331 87.8387 97.2976 84.4772 102.407 73.7205C108.794 60.2747 130.643 66.6615 138.375 56.9132Z" fill="#D9D6FE"/>
<path fill-rule="evenodd" clip-rule="evenodd" d="M142.355 45.2456C141.74 47.0392 140.538 49.2364 138.449 51.8709C134.953 56.2789 128.57 57.3877 122.036 58.523C114.119 59.8983 105.98 61.3123 102.481 68.6782C99.0437 75.9147 96.1236 79.8043 94.1711 81.6774C93.5493 84.0561 92.6275 86.5989 91.9855 88.1748C93.3301 87.8386 97.2966 84.4772 102.406 73.7205C105.905 66.3546 114.044 64.9406 121.961 63.5653C128.495 62.43 134.878 61.3212 138.374 56.9132C143.197 50.832 143.291 47.081 142.355 45.2456ZM94.4009 76.0197C94.8718 74.0693 95.0997 72.3007 94.7497 71.3674C93.9429 69.216 90.6039 75.177 89.0352 78.4264C88.9103 77.7813 88.797 76.9908 88.7212 76.1122C88.3655 78.8707 88.6197 81.7098 88.9602 83.4687C90.3887 80.5095 93.2856 75.3015 94.4009 76.0197Z" fill="url(#paint14_linear_4626_150245)"/>
<path fill-rule="evenodd" clip-rule="evenodd" d="M98.7118 60.2481C89.1967 61.9687 82.188 64.4042 76.9215 71.2187C73.0066 76.2845 74.3553 75.5044 77.4941 73.6888C80.435 71.9878 84.9475 69.3777 88.1741 69.8157C88.4512 69.8534 88.7208 69.8758 88.9841 69.8842C89.4348 67.6328 90.3583 65.5526 92.0547 64.3086C93.5665 63.2 95.8641 61.7589 98.7118 60.2481ZM107.02 63.298C111.088 60.4242 116.611 59.4647 122.03 58.5233C126.705 57.7111 131.303 56.9123 134.821 54.9089C130.351 59.5907 120.436 63.5785 109.988 63.2399C108.93 63.2056 107.944 63.2282 107.02 63.298Z" fill="#D9D6FE"/>
<path fill-rule="evenodd" clip-rule="evenodd" d="M98.703 60.5714C89.1879 62.2919 82.1792 64.7274 76.9127 71.5419C72.9978 76.6077 74.3465 75.8276 77.4853 74.0121C80.4263 72.311 84.9387 69.7009 88.1653 70.139C88.4424 70.1766 88.712 70.199 88.9753 70.2075C89.426 67.9561 90.3496 65.8759 92.0459 64.6319C93.5577 63.5232 95.8553 62.0821 98.703 60.5714ZM107.012 63.6213C111.079 60.7474 116.602 59.7879 122.021 58.8466C126.696 58.0343 131.294 57.2355 134.812 55.2322C130.343 59.9139 120.427 63.9018 109.979 63.5631C108.921 63.5289 107.935 63.5515 107.012 63.6213Z" fill="url(#paint15_linear_4626_150245)"/>
<circle cx="140.389" cy="33.7196" r="15.4627" fill="#6941C6"/>
<circle cx="139.043" cy="33.7196" r="15.4627" fill="#7F56D9"/>
<circle cx="139.046" cy="33.7194" r="12.1013" fill="url(#paint16_radial_4626_150245)"/>
<path fill-rule="evenodd" clip-rule="evenodd" d="M134.316 44.8617C130.711 42.7663 128.287 38.8621 128.287 34.3918C128.287 27.7085 133.705 22.2905 140.388 22.2905C142.066 22.2905 143.664 22.6321 145.117 23.2496C143.332 22.2122 141.258 21.6182 139.045 21.6182C132.362 21.6182 126.944 27.0361 126.944 33.7194C126.944 38.7246 129.983 43.0201 134.316 44.8617Z" fill="#6941C6"/>
<rect opacity="0.5" x="51.2065" y="129.038" width="54.278" height="82.9531" fill="url(#paint17_linear_4626_150245)"/>
<rect opacity="0.5" x="170.003" y="82.9531" width="15.3617" height="129.038" fill="url(#paint18_linear_4626_150245)"/>
<defs>
<linearGradient id="paint0_linear_4626_150245" x1="127.784" y1="24.7069" x2="127.784" y2="284.915" gradientUnits="userSpaceOnUse">
<stop offset="0.317708" stop-color="#7F56D9"/>
<stop offset="0.885417" stop-color="#C7AEFF"/>
</linearGradient>
<linearGradient id="paint1_linear_4626_150245" x1="115.347" y1="96.0557" x2="115.347" y2="146.814" gradientUnits="userSpaceOnUse">
<stop stop-color="#5925DC"/>
<stop offset="1" stop-color="#3400B7"/>
</linearGradient>
<radialGradient id="paint2_radial_4626_150245" cx="0" cy="0" r="1" gradientUnits="userSpaceOnUse" gradientTransform="translate(115.347 121.435) rotate(-39.6601) scale(14.1909 10.9956)">
<stop stop-color="white"/>
<stop offset="1" stop-color="#F8F8F8" stop-opacity="0"/>
</radialGradient>
<radialGradient id="paint3_radial_4626_150245" cx="0" cy="0" r="1" gradientUnits="userSpaceOnUse" gradientTransform="translate(104.758 111.033) rotate(-123.69) scale(21.8159 16.9037)">
<stop offset="0.510417" stop-color="white"/>
<stop offset="1" stop-color="#F8F8F8" stop-opacity="0"/>
</radialGradient>
<linearGradient id="paint4_linear_4626_150245" x1="139.216" y1="74.542" x2="139.216" y2="141.099" gradientUnits="userSpaceOnUse">
<stop stop-color="#4813CF"/>
<stop offset="1" stop-color="#3400B7"/>
</linearGradient>
<radialGradient id="paint5_radial_4626_150245" cx="0" cy="0" r="1" gradientUnits="userSpaceOnUse" gradientTransform="translate(146.511 31.6583) rotate(91.4073) scale(98.0742 62.3448)">
<stop stop-color="#F9FAFB"/>
<stop offset="1" stop-color="#C6C6C6" stop-opacity="0"/>
</radialGradient>
<radialGradient id="paint6_radial_4626_150245" cx="0" cy="0" r="1" gradientUnits="userSpaceOnUse" gradientTransform="translate(180.883 82.336) rotate(118.952) scale(60.1477 44.1037)">
<stop stop-color="#797979"/>
<stop offset="0.786458" stop-opacity="0"/>
</radialGradient>
<linearGradient id="paint7_linear_4626_150245" x1="195.748" y1="59.8544" x2="101.294" y2="7.64723" gradientUnits="userSpaceOnUse">
<stop stop-color="white"/>
<stop offset="0.151042" stop-color="#DFDFDF"/>
<stop offset="0.255208" stop-color="#ECECEC"/>
<stop offset="0.348958" stop-color="#DFDFDF"/>
<stop offset="0.4375" stop-color="#BCBCBC"/>
<stop offset="0.588542" stop-color="#E3E3E3"/>
<stop offset="0.739583" stop-color="white"/>
<stop offset="0.864583" stop-color="#D7D7D7"/>
<stop offset="1" stop-color="#F1F1F1"/>
</linearGradient>
<linearGradient id="paint8_linear_4626_150245" x1="54.6753" y1="101.621" x2="162.972" y2="186.838" gradientUnits="userSpaceOnUse">
<stop offset="0.0989583" stop-color="#7F56D9"/>
<stop offset="1" stop-color="#581FD8"/>
</linearGradient>
<radialGradient id="paint9_radial_4626_150245" cx="0" cy="0" r="1" gradientUnits="userSpaceOnUse" gradientTransform="translate(132.324 73.3848) rotate(-148.543) scale(33.4951 29.0663)">
<stop offset="0.510417" stop-color="white"/>
<stop offset="1" stop-color="#F8F8F8" stop-opacity="0"/>
</radialGradient>
<linearGradient id="paint10_linear_4626_150245" x1="159.549" y1="179.607" x2="107.11" y2="121.454" gradientUnits="userSpaceOnUse">
<stop offset="0.135417" stop-color="#7142D9"/>
<stop offset="0.744792" stop-color="#581FD8"/>
</linearGradient>
<linearGradient id="paint11_linear_4626_150245" x1="159.549" y1="179.607" x2="107.11" y2="121.454" gradientUnits="userSpaceOnUse">
<stop offset="0.135417" stop-color="#7142D9"/>
<stop offset="0.744792" stop-color="#581FD8"/>
</linearGradient>
<radialGradient id="paint12_radial_4626_150245" cx="0" cy="0" r="1" gradientUnits="userSpaceOnUse" gradientTransform="translate(132.994 94.8981) rotate(-146.646) scale(31.7921 30.5201)">
<stop offset="0.510417" stop-color="white"/>
<stop offset="1" stop-color="#F8F8F8" stop-opacity="0"/>
</radialGradient>
<linearGradient id="paint13_linear_4626_150245" x1="106.73" y1="41.6684" x2="83.2144" y2="61.8197" gradientUnits="userSpaceOnUse">
<stop stop-color="#9568F8"/>
<stop offset="1" stop-color="#7B4CE0" stop-opacity="0"/>
</linearGradient>
<linearGradient id="paint14_linear_4626_150245" x1="115.685" y1="45.2456" x2="88.6244" y2="63.6367" gradientUnits="userSpaceOnUse">
<stop stop-color="#6937D9"/>
<stop offset="1" stop-color="#7B4CE0"/>
</linearGradient>
<linearGradient id="paint15_linear_4626_150245" x1="104.659" y1="55.2322" x2="92.3968" y2="74.947" gradientUnits="userSpaceOnUse">
<stop stop-color="#6937D9"/>
<stop offset="1" stop-color="#7B4CE0"/>
</linearGradient>
<radialGradient id="paint16_radial_4626_150245" cx="0" cy="0" r="1" gradientUnits="userSpaceOnUse" gradientTransform="translate(167.955 44.0369) rotate(-162.759) scale(46.6449)">
<stop offset="0.731676" stop-color="#DDC0FF"/>
<stop offset="1" stop-color="#DDC0FF" stop-opacity="0"/>
</radialGradient>
<linearGradient id="paint17_linear_4626_150245" x1="78.3455" y1="129.038" x2="78.3455" y2="268.317" gradientUnits="userSpaceOnUse">
<stop stop-color="#7B3FE4" stop-opacity="0"/>
<stop offset="0.682292" stop-color="#6733D9"/>
</linearGradient>
<linearGradient id="paint18_linear_4626_150245" x1="177.684" y1="82.9531" x2="177.684" y2="299.61" gradientUnits="userSpaceOnUse">
<stop stop-color="#DEC1FF" stop-opacity="0"/>
<stop offset="0.682292" stop-color="#5019CB"/>
</linearGradient>
</defs>
</svg>
