<svg width="100%" height="25" viewBox="0 0 689 126" fill="none" xmlns="http://www.w3.org/2000/svg">
<path d="M105.53 88.75L139.11 69.36C140.89 68.33 141.99 66.42 141.99 64.37V25.59C141.99 23.54 140.89 21.63 139.11 20.6L105.53 1.21004C103.75 0.180039 101.54 0.190039 99.7699 1.21004L66.1899 20.6C64.4099 21.63 63.3099 23.54 63.3099 25.59V94.89L39.7599 108.48L16.2099 94.89V67.7L39.7599 54.11L55.2899 63.08V44.84L42.6399 37.53C41.7699 37.03 40.7699 36.76 39.7599 36.76C38.7499 36.76 37.7499 37.03 36.8799 37.53L3.29992 56.92C1.51992 57.95 0.419922 59.86 0.419922 61.91V100.69C0.419922 102.74 1.51992 104.65 3.29992 105.68L36.8799 125.07C38.6599 126.09 40.8599 126.09 42.6399 125.07L76.2199 105.68C77.9999 104.65 79.0999 102.74 79.0999 100.69V31.39L79.5199 31.15L102.64 17.8L126.19 31.39V58.58L102.64 72.17L87.1299 63.22V81.46L99.7599 88.75C101.54 89.77 103.75 89.77 105.52 88.75H105.53Z" fill="url(#paint0_linear_294_219)"/>
<path d="M179 109.06V30.0199H190.76L191.88 36.3999H192.44C195.8 32.0299 201.51 28.8999 209.46 28.8999C224.01 28.8999 235.66 40.7699 235.66 58.3399C235.66 75.9099 224.02 87.7799 209.46 87.7799C201.62 87.7799 196.14 84.5299 193.23 80.8399H192.67V109.05H179.01L179 109.06ZM221.99 58.3499C221.99 48.0499 215.38 41.5599 207.32 41.5599C199.26 41.5599 192.65 48.0499 192.65 58.3499C192.65 68.6499 199.26 75.1399 207.32 75.1399C215.38 75.1399 221.99 68.6499 221.99 58.3499Z" fill="#22143D"/>
<path d="M242.59 58.3399C242.59 41.2099 254.9 28.8999 271.36 28.8999C287.82 28.8999 300.13 41.2099 300.13 58.3399C300.13 75.4699 287.82 87.7799 271.36 87.7799C254.9 87.7799 242.59 75.3499 242.59 58.3399ZM286.36 58.3399C286.36 48.2599 279.64 41.5499 271.36 41.5499C263.08 41.5499 256.25 48.2699 256.25 58.3399C256.25 68.4099 263.08 75.0199 271.36 75.0199C279.64 75.0199 286.36 68.4199 286.36 58.3399Z" fill="#22143D"/>
<path d="M310.02 86.6699V8.29993H323.68V86.6699H310.02Z" fill="#22143D"/>
<path d="M374.4 30.0199H388.95L364.32 98.8699C361.86 105.7 358.5 109.06 349.65 109.06H336.44V96.4099H347.64C349.66 96.4099 350.77 95.3999 351.45 93.7199L352.79 90.0299L329.73 30.0199H344.28L358.95 69.3199H361.19L374.4 30.0199Z" fill="#22143D"/>
<path d="M391.55 89.4699H405.43C405.99 93.1599 409.68 98.1999 418.42 98.1999C426.59 98.1999 431.97 93.0499 431.97 85.2099V77.2599H431.41C428.39 80.5099 422.79 83.4199 415.62 83.4199C401.07 83.4199 389.87 72.2199 389.87 56.0999C389.87 39.9799 401.07 28.8999 415.62 28.8999C423.12 28.8999 428.61 31.9199 432.08 36.1799H432.64L433.76 30.0199H445.63V85.2099C445.63 100.21 435.55 110.18 418.42 110.18C399.28 110.18 391.89 97.6399 391.55 89.4699ZM431.97 56.1099C431.97 47.2699 425.7 41.1099 417.75 41.1099C409.8 41.1099 403.64 47.2699 403.64 56.1099C403.64 64.9499 409.91 71.2199 417.75 71.2199C425.59 71.2199 431.97 65.0599 431.97 56.1099Z" fill="#22143D"/>
<path d="M455.13 58.3399C455.13 41.2099 467.44 28.8999 483.9 28.8999C500.36 28.8999 512.67 41.2099 512.67 58.3399C512.67 75.4699 500.36 87.7799 483.9 87.7799C467.44 87.7799 455.13 75.3499 455.13 58.3399ZM498.9 58.3399C498.9 48.2599 492.18 41.5499 483.9 41.5499C475.62 41.5499 468.79 48.2699 468.79 58.3399C468.79 68.4099 475.62 75.0199 483.9 75.0199C492.18 75.0199 498.9 68.4199 498.9 58.3399Z" fill="#22143D"/>
<path d="M522.18 86.6699V30.0199H533.93L535.05 35.3899H535.61C537.85 32.8199 543.45 28.8999 551.95 28.8999C564.94 28.8999 574.34 38.2999 574.34 52.6299V86.6599H560.68V54.4199C560.68 47.1399 555.53 41.8799 548.48 41.8799C541.43 41.8799 535.83 47.3699 535.83 54.4199V86.6599H522.17L522.18 86.6699Z" fill="#22143D"/>
<path d="M608.54 88.3H602V12H608.54V88.3Z" fill="#22143D"/>
<path d="M627.44 88.3V12H651.529C658.505 12 664.755 13.5987 670.277 16.796C675.873 19.9933 680.233 24.4987 683.357 30.312C686.482 36.1253 688.044 42.738 688.044 50.15C688.044 57.562 686.482 64.1747 683.357 69.988C680.233 75.8013 675.873 80.3067 670.277 83.504C664.755 86.7013 658.505 88.3 651.529 88.3H627.44ZM651.529 82.087C657.125 82.087 662.211 80.779 666.789 78.163C671.367 75.4743 674.964 71.732 677.58 66.936C680.196 62.0673 681.504 56.472 681.504 50.15C681.504 43.828 680.196 38.269 677.58 33.473C674.964 28.6043 671.367 24.862 666.789 22.246C662.211 19.5573 657.125 18.213 651.529 18.213H633.98V82.087H651.529Z" fill="#22143D"/>
<defs>
<linearGradient id="paint0_linear_294_219" x1="-0.0400809" y1="104.49" x2="135.91" y2="25.58" gradientUnits="userSpaceOnUse">
<stop stop-color="#A726C1"/>
<stop offset="0.88" stop-color="#803BDF"/>
<stop offset="1" stop-color="#7B3FE4"/>
</linearGradient>
</defs>
</svg>
