<svg width="146" height="48" viewBox="0 0 146 48" fill="none" xmlns="http://www.w3.org/2000/svg">
<path d="M41.1492 19.035H43.9379V20.1325C44.2537 19.7269 44.6677 19.4078 45.1413 19.205C45.6789 18.9752 46.2597 18.8627 46.8447 18.875C47.7051 18.8545 48.554 19.0754 49.2942 19.5125C49.9978 19.9496 50.5582 20.5812 50.9071 21.33C51.3039 22.1866 51.4998 23.1219 51.4799 24.065C51.5007 25.0094 51.2903 25.9446 50.8669 26.79C50.4818 27.5455 49.8872 28.1754 49.1535 28.605C48.3793 29.0476 47.4987 29.2723 46.606 29.255C46.0711 29.2614 45.5399 29.1664 45.0408 28.975C44.6113 28.816 44.2311 28.5479 43.9379 28.1975V33.1675H41.1492V19.035ZM44.468 26.09C44.6994 26.3325 44.978 26.5256 45.2868 26.6576C45.5957 26.7896 45.9282 26.8576 46.2643 26.8576C46.6004 26.8576 46.933 26.7896 47.2418 26.6576C47.5506 26.5256 47.8292 26.3325 48.0606 26.09C48.5331 25.5229 48.7758 24.8008 48.7415 24.065C48.7774 23.3221 48.5348 22.5924 48.0606 22.0175C47.8292 21.775 47.5506 21.5819 47.2418 21.4499C46.933 21.3179 46.6004 21.2499 46.2643 21.2499C45.9282 21.2499 45.5957 21.3179 45.2868 21.4499C44.978 21.5819 44.6994 21.775 44.468 22.0175C43.9938 22.5924 43.7512 23.3221 43.7872 24.065C43.7523 24.8009 43.9951 25.5232 44.468 26.09Z" fill="#0A0B0D"/>
<path d="M55.07 28.585C54.2726 28.1571 53.6126 27.5142 53.1657 26.73C52.7173 25.9126 52.4824 24.9962 52.4824 24.065C52.4824 23.1338 52.7173 22.2174 53.1657 21.4C53.6132 20.6156 54.273 19.9721 55.07 19.5425C55.9191 19.104 56.8618 18.8751 57.8185 18.8751C58.7752 18.8751 59.7178 19.104 60.567 19.5425C61.364 19.9721 62.0238 20.6156 62.4713 21.4C62.9197 22.2174 63.1546 23.1338 63.1546 24.065C63.1546 24.9962 62.9197 25.9126 62.4713 26.73C62.0244 27.5142 61.3644 28.1571 60.567 28.585C59.7183 29.0251 58.7755 29.255 57.8185 29.255C56.8615 29.255 55.9186 29.0251 55.07 28.585ZM55.992 26.085C56.228 26.3305 56.5115 26.5259 56.8254 26.6593C57.1393 26.7928 57.4771 26.8616 57.8185 26.8616C58.1599 26.8616 58.4977 26.7928 58.8116 26.6593C59.1255 26.5259 59.409 26.3305 59.6449 26.085C60.1277 25.5265 60.3784 24.8059 60.3459 24.07C60.3791 23.3271 60.1287 22.5993 59.6449 22.0325C59.409 21.787 59.1255 21.5916 58.8116 21.4582C58.4977 21.3247 58.1599 21.2559 57.8185 21.2559C57.4771 21.2559 57.1393 21.3247 56.8254 21.4582C56.5115 21.5916 56.228 21.787 55.992 22.0325C55.5083 22.5993 55.2579 23.3271 55.2911 24.07C55.2599 24.8042 55.5105 25.5228 55.992 26.08V26.085Z" fill="#0A0B0D"/>
<path d="M64.8378 14.6625H67.6265V29.095H64.8378V14.6625Z" fill="#0A0B0D"/>
<path d="M72.6059 29.015L68.9304 19.035H71.7794L73.9048 25.535L76.0126 19.0475H78.8867L75.2162 29.0675L73.7918 33.18H71.1161L72.6059 29.015Z" fill="#0A0B0D"/>
<path d="M80.4745 27.8475C79.5842 26.7925 79.129 25.4408 79.2008 24.065C79.1808 23.1219 79.3767 22.1866 79.7736 21.33C80.1256 20.577 80.6938 19.9446 81.4066 19.5125C82.1742 19.073 83.0487 18.8525 83.934 18.875C84.4946 18.8672 85.051 18.9727 85.5695 19.185C86.0215 19.3627 86.4191 19.6548 86.7227 20.0325V19.0325H89.5314V29.69C89.5512 30.1608 89.4683 30.6303 89.2883 31.0662C89.1083 31.5021 88.8356 31.894 88.4888 32.215C87.7233 32.8711 86.7346 33.211 85.7253 33.165H80.6253V31H85.2781C85.4763 31.007 85.6736 30.9703 85.8559 30.8925C86.0374 30.814 86.2001 30.6981 86.3333 30.5525C86.6125 30.2363 86.759 29.8256 86.7428 29.405V28.0875C86.4628 28.4808 86.072 28.7827 85.6198 28.955C85.0986 29.1671 84.5398 29.2726 83.9767 29.265C83.3253 29.2973 82.6746 29.1881 82.0698 28.9451C81.4651 28.702 80.9207 28.3309 80.4745 27.8575V27.8475ZM82.62 26.0975C82.8458 26.346 83.1238 26.5421 83.4342 26.6717C83.7447 26.8013 84.08 26.8613 84.4164 26.8475C84.7542 26.8613 85.091 26.8012 85.4031 26.6717C85.7151 26.5421 85.9949 26.3461 86.2227 26.0975C86.6993 25.5288 86.9425 24.802 86.9036 24.0625C86.9395 23.3196 86.6969 22.5899 86.2227 22.015C85.9967 21.7625 85.7172 21.5629 85.4045 21.4307C85.0917 21.2984 84.7534 21.2367 84.4138 21.25C84.0761 21.2355 83.7395 21.297 83.429 21.43C83.1185 21.5643 82.8415 21.7648 82.6175 22.0175C82.147 22.5939 81.908 23.3234 81.9467 24.065C81.9097 24.803 82.1496 25.5283 82.62 26.1V26.0975Z" fill="#0A0B0D"/>
<path d="M93.8049 28.585C93.0062 28.1579 92.3452 27.5149 91.898 26.73C91.4497 25.9126 91.2147 24.9962 91.2147 24.065C91.2147 23.1338 91.4497 22.2174 91.898 21.4C92.3458 20.615 93.0066 19.9713 93.8049 19.5425C94.6536 19.104 95.5958 18.8751 96.5521 18.8751C97.5084 18.8751 98.4506 19.104 99.2993 19.5425C100.098 19.9713 100.758 20.615 101.206 21.4C101.653 22.2179 101.887 23.1341 101.887 24.065C101.887 24.9959 101.653 25.9121 101.206 26.73C100.759 27.5149 100.098 28.1579 99.2993 28.585C98.4511 29.0251 97.5087 29.255 96.5521 29.255C95.5955 29.255 94.6531 29.0251 93.8049 28.585ZM94.7269 26.085C94.9609 26.3321 95.2441 26.5279 95.5585 26.66C96.0309 26.863 96.5547 26.9167 97.0588 26.8139C97.5629 26.711 98.0232 26.4566 98.3773 26.085C98.8601 25.5265 99.1107 24.8059 99.0782 24.07C99.1127 23.327 98.8622 22.5986 98.3773 22.0325C98.141 21.7881 97.8584 21.5926 97.5457 21.4575C97.2317 21.3239 96.8937 21.255 96.5521 21.255C96.2105 21.255 95.8725 21.3239 95.5585 21.4575C95.2451 21.5914 94.9623 21.787 94.7269 22.0325C94.2424 22.599 93.9912 23.3268 94.0235 24.07C93.9945 24.8044 94.2458 25.5224 94.7269 26.08V26.085Z" fill="#0A0B0D"/>
<path d="M103.412 19.035H106.221V20.4325C106.504 19.937 106.93 19.5373 107.444 19.285C108.016 19.0033 108.648 18.8627 109.286 18.875C109.978 18.861 110.661 19.0338 111.263 19.375C111.828 19.7072 112.287 20.1917 112.587 20.7725C112.908 21.4095 113.069 22.1149 113.054 22.8275V29.095H110.253V23.445C110.271 22.8944 110.077 22.3576 109.71 21.945C109.532 21.7531 109.314 21.6013 109.072 21.5C108.834 21.4004 108.577 21.3527 108.319 21.36C108.037 21.3502 107.756 21.4012 107.496 21.5095C107.236 21.6178 107.002 21.7809 106.811 21.9875C106.416 22.4287 106.208 23.0047 106.231 23.595V29.095H103.412V19.035Z" fill="#0A0B0D"/>
<path d="M119.74 15.1225H121.825V29.095H119.74V15.1225Z" fill="#0A0B0D"/>
<path d="M124.674 15.1225H128.987C130.235 15.1054 131.468 15.3821 132.588 15.93C133.653 16.4599 134.539 17.2891 135.135 18.315C135.783 19.4727 136.105 20.7829 136.067 22.1075C136.106 23.4322 135.784 24.7428 135.135 25.9C134.539 26.9271 133.653 27.7573 132.588 28.2875C131.468 28.8354 130.235 29.1121 128.987 29.095H124.674V15.1225ZM128.867 27.25C129.739 27.2642 130.602 27.083 131.394 26.72C132.165 26.3519 132.805 25.76 133.231 25.0225C133.721 24.1305 133.959 23.1234 133.922 22.1075C133.959 21.0924 133.721 20.0861 133.231 19.195C132.805 18.4578 132.165 17.8667 131.394 17.5C130.603 17.1348 129.739 16.9503 128.867 16.96H126.759V27.25H128.867Z" fill="#0A0B0D"/>
<path d="M33.5118 16.8175C33.0545 16.0296 32.398 15.3746 31.6075 14.9175L29.9192 13.95C30.0124 14.416 30.0595 14.8899 30.0599 15.365V17.115L30.2659 17.235C30.6478 17.4588 30.9646 17.7778 31.1848 18.1605C31.4051 18.5432 31.5213 18.9764 31.5221 19.4175V28.1925C31.5238 28.633 31.4086 29.0662 31.188 29.4481C30.9674 29.8301 30.6493 30.1472 30.2659 30.3675L30.286 30.4025C30.1754 30.4277 30.0695 30.4699 29.972 30.5275L29.0675 31.055C28.7759 31.2208 28.4504 31.319 28.1154 31.3425C28.0995 31.3449 28.0834 31.3449 28.0676 31.3425C27.8359 31.3641 27.6021 31.3455 27.3767 31.2875C27.2851 31.2681 27.1952 31.2413 27.1079 31.2075L24.6961 29.86L24.4449 29.72L24.2288 29.5925L22.7214 28.725L17.335 25.615L14.6996 27.1775L25.1734 33.23C25.3036 33.3404 25.4537 33.4252 25.6156 33.48C25.6205 33.4817 25.6258 33.4817 25.6307 33.48C26.3727 33.8595 27.1987 34.0475 28.0328 34.0265C28.8668 34.0055 29.6822 33.7763 30.4041 33.36L31.3085 32.84C31.4065 32.7824 31.4969 32.7127 31.5773 32.6325L31.6024 32.68C32.7972 31.9907 33.6682 30.8578 34.0243 29.53C34.1449 29.0952 34.2057 28.6461 34.2052 28.195V19.41C34.2051 18.5005 33.9661 17.6067 33.5118 16.8175Z" fill="#7B3FE4"/>
<path d="M11.2024 19.9575V19.41C11.2037 18.969 11.3201 18.536 11.5403 18.1534C11.7606 17.7707 12.077 17.4517 12.4586 17.2275L16.9556 14.645L19.5584 13.1575L20.0986 12.8425C20.4837 12.6247 20.9192 12.5101 21.3622 12.5101C21.8053 12.5101 22.2407 12.6247 22.6259 12.8425L23.5304 13.365C23.8309 13.5345 24.0889 13.7698 24.2847 14.053C24.4806 14.3363 24.6092 14.6601 24.6609 15L24.681 15.16C24.6899 15.1806 24.695 15.2026 24.6961 15.225C24.6999 15.2699 24.6999 15.3151 24.6961 15.36V26.79L27.3792 28.29V15.9125V15.365C27.3789 15.0901 27.3545 14.8157 27.3064 14.545C27.1866 13.8205 26.9069 13.1315 26.4874 12.5275C26.0666 11.9224 25.5145 11.4192 24.872 11.055L23.9675 10.535C23.3111 10.1579 22.5798 9.92785 21.8248 9.86092C21.0698 9.79399 20.3092 9.89179 19.5961 10.1475C19.3113 10.2542 19.0357 10.3838 18.772 10.535L16.0361 12.095L11.1195 14.9175C10.3288 15.3761 9.67268 16.033 9.21645 16.8225C8.76023 17.612 8.51986 18.5067 8.51929 19.4175V21.6675C8.87891 21.3627 9.26478 21.09 9.67244 20.8525L11.2024 19.9575Z" fill="#7B3FE4"/>
<path d="M22.5405 34.7975C22.1626 34.9958 21.7404 35.0954 21.3133 35.0871C20.8863 35.0788 20.4683 34.9628 20.0985 34.75L13.8906 31.175L13.172 30.7675L12.4686 30.36C12.0856 30.1399 11.7677 29.8232 11.5472 29.4417C11.3266 29.0602 11.2111 28.6276 11.2124 28.1875V27.4575C11.2113 27.1351 11.279 26.8162 11.4111 26.5218C11.5432 26.2274 11.7367 25.9643 11.9787 25.75C12.0068 25.717 12.0389 25.6877 12.0742 25.6625C12.084 25.6443 12.1 25.6301 12.1194 25.6225C12.165 25.5817 12.2146 25.5457 12.2676 25.515L13.8604 24.575L14.6845 24.095L16.5813 23L22.0129 19.81V16.7125L11.4034 22.92L11.3556 22.9475L11.014 23.1475C10.768 23.288 10.5388 23.4558 10.3306 23.6475C9.76105 24.1096 9.30271 24.6929 8.98926 25.3543C8.67581 26.0158 8.51521 26.7387 8.51924 27.47V28.1975V28.5C8.51884 28.6055 8.53235 28.7105 8.55944 28.8125C8.65034 29.5268 8.88904 30.2146 9.26048 30.8325C9.63192 31.4504 10.128 31.985 10.7175 32.4025C10.8458 32.4999 10.98 32.5893 11.1195 32.67L11.725 33.015L18.7594 37.0525C19.5515 37.5078 20.45 37.7475 21.3647 37.7475C22.2794 37.7475 23.178 37.5078 23.97 37.0525L25.3744 36.25C24.9213 36.0995 24.4852 35.9026 24.073 35.6625L22.5405 34.7975Z" fill="#7B3FE4"/>
</svg>
