<svg width="128" height="29" viewBox="0 0 128 29" fill="none" xmlns="http://www.w3.org/2000/svg">
<path d="M0 5.63299L0 22.8404C0 25.9514 2.52198 28.4734 5.63299 28.4734H22.8404C25.9515 28.4734 28.4734 25.9514 28.4734 22.8404V5.63299C28.4734 2.52197 25.9515 -1.90735e-06 22.8404 -1.90735e-06H5.63299C2.52198 -1.90735e-06 0 2.52197 0 5.63299Z" fill="#99FE5B"/>
<path d="M15.0952 23.2917C17.4778 23.2917 19.7627 22.3452 21.4474 20.6605C23.1321 18.9758 24.0786 16.6908 24.0786 14.3083C24.0786 11.9257 23.1321 9.6408 21.4474 7.95604C19.7627 6.27133 17.4778 5.32485 15.0952 5.32485V23.2917Z" fill="#131313"/>
<path d="M11.1265 12.3917H7.5658V23.2917H11.1265V12.3917Z" fill="#131313"/>
<path d="M9.32866 9.97447C10.6126 9.97447 11.6535 8.93362 11.6535 7.64966C11.6535 6.3657 10.6126 5.32485 9.32866 5.32485C8.0447 5.32485 7.00385 6.3657 7.00385 7.64966C7.00385 8.93362 8.0447 9.97447 9.32866 9.97447Z" fill="#131313"/>
<path d="M114.404 6.51299H119.251C120.719 6.51299 122.041 6.80672 123.216 7.39427C124.406 7.98177 125.346 8.85568 126.036 10.016C126.742 11.1764 127.094 12.579 127.094 14.224C127.094 15.8691 126.742 17.2718 126.036 18.4321C125.346 19.5925 124.406 20.4664 123.216 21.0539C122.041 21.6414 120.719 21.9351 119.251 21.9351H114.404V6.51299ZM119.075 19.6659C120.059 19.6659 120.954 19.4823 121.762 19.1151C122.57 18.7332 123.216 18.1384 123.701 17.3305C124.2 16.508 124.45 15.4725 124.45 14.224C124.45 12.9756 124.2 11.9401 123.701 11.1176C123.216 10.2951 122.57 9.70022 121.762 9.33306C120.954 8.95117 120.059 8.7602 119.075 8.7602H116.937V19.6659H119.075Z" fill="#131313"/>
<path d="M109.925 10.8312H112.327V21.9351H109.925V10.8312ZM111.115 8.98053C110.674 8.98053 110.307 8.83367 110.013 8.5399C109.719 8.23144 109.573 7.86428 109.573 7.43832C109.573 6.99769 109.719 6.63048 110.013 6.33675C110.307 6.02829 110.674 5.87406 111.115 5.87406C111.57 5.87406 111.945 6.02829 112.238 6.33675C112.547 6.63048 112.701 6.99769 112.701 7.43832C112.701 7.86428 112.547 8.23144 112.238 8.5399C111.945 8.83367 111.57 8.98053 111.115 8.98053Z" fill="#131313"/>
<path d="M106.389 22.1114C105.934 22.1114 105.559 21.9645 105.266 21.6707C104.972 21.377 104.825 21.0098 104.825 20.5692C104.825 20.1285 104.972 19.7614 105.266 19.4676C105.559 19.1738 105.934 19.027 106.389 19.027C106.844 19.027 107.219 19.1738 107.513 19.4676C107.806 19.7614 107.953 20.1285 107.953 20.5692C107.953 21.0098 107.806 21.377 107.513 21.6707C107.219 21.9645 106.844 22.1114 106.389 22.1114Z" fill="#131313"/>
<path d="M98.4254 22.1114C97.3237 22.1114 96.3397 21.869 95.4731 21.3843C94.6064 20.885 93.9235 20.202 93.4243 19.3354C92.9396 18.4688 92.6972 17.4848 92.6972 16.3831C92.6972 15.2816 92.9396 14.2975 93.4243 13.4309C93.9235 12.5643 94.6064 11.8887 95.4731 11.404C96.3397 10.9046 97.3237 10.6549 98.4254 10.6549C99.5271 10.6549 100.511 10.9046 101.378 11.404C102.244 11.8887 102.92 12.5643 103.405 13.4309C103.904 14.2975 104.154 15.2816 104.154 16.3831C104.154 17.4848 103.904 18.4688 103.405 19.3354C102.92 20.202 102.244 20.885 101.378 21.3843C100.511 21.869 99.5271 22.1114 98.4254 22.1114ZM95.1207 16.3831C95.1207 17.4554 95.4217 18.3293 96.0237 19.0049C96.6407 19.6805 97.4414 20.0184 98.4254 20.0184C99.4093 20.0184 100.203 19.6805 100.805 19.0049C101.422 18.3293 101.73 17.4554 101.73 16.3831C101.73 15.3109 101.422 14.437 100.805 13.7614C100.203 13.0857 99.4093 12.7479 98.4254 12.7479C97.4414 12.7479 96.6407 13.0857 96.0237 13.7614C95.4217 14.437 95.1207 15.3109 95.1207 16.3831Z" fill="#131313"/>
<path d="M85.5918 22.1114C84.4901 22.1114 83.5353 21.8691 82.7273 21.3844C81.9343 20.8997 81.325 20.224 80.899 19.3575C80.4875 18.4909 80.282 17.4994 80.282 16.3832C80.282 15.2669 80.4875 14.2755 80.899 13.4089C81.325 12.5423 81.9343 11.8667 82.7273 11.382C83.5207 10.8973 84.4606 10.655 85.5477 10.655C86.2525 10.655 86.9063 10.8018 87.5083 11.0956C88.1253 11.3747 88.6028 11.7492 88.9406 12.2192V6.33675H91.3418V21.9351H88.9406V20.5251C88.676 20.9951 88.2354 21.377 87.6184 21.6708C87.0018 21.9645 86.3262 22.1114 85.5918 22.1114ZM82.6836 16.3832C82.6836 17.4701 82.9774 18.3513 83.5648 19.027C84.1523 19.6879 84.9307 20.0184 85.9001 20.0184C86.8695 20.0184 87.6479 19.6879 88.2354 19.027C88.8228 18.3513 89.1166 17.4701 89.1166 16.3832C89.1166 15.2816 88.8228 14.4003 88.2354 13.7394C87.6479 13.0784 86.8695 12.7479 85.9001 12.7479C84.9307 12.7479 84.1523 13.0784 83.5648 13.7394C82.9774 14.4003 82.6836 15.2816 82.6836 16.3832Z" fill="#131313"/>
<path d="M76.5776 14.7528C76.5776 14.0772 76.3575 13.5411 75.917 13.1445C75.4909 12.7479 74.9107 12.5497 74.1764 12.5497C73.5007 12.5497 72.9424 12.7406 72.5018 13.1225C72.0612 13.4897 71.8043 14.0038 71.7306 14.6647L69.5718 14.2681C69.7477 13.1812 70.262 12.3073 71.1141 11.6463C71.9657 10.9854 72.9865 10.6549 74.1764 10.6549C75.6155 10.6549 76.7686 11.0441 77.6352 11.8226C78.5018 12.5864 78.9352 13.6512 78.9352 15.0172V21.9351H76.5776V20.2387C76.2548 20.7968 75.7774 21.2522 75.1458 21.6046C74.5142 21.9425 73.8313 22.1114 73.0965 22.1114C72.3772 22.1114 71.7306 21.9718 71.1577 21.6928C70.5998 21.4137 70.1592 21.0245 69.836 20.5251C69.5277 20.0257 69.3735 19.4602 69.3735 18.8287C69.3735 17.7418 69.7918 16.8972 70.6294 16.295C71.481 15.6928 72.7664 15.3036 74.4847 15.1273L76.5776 14.907V14.7528ZM71.7306 18.7626C71.7306 19.2032 71.8998 19.563 72.2376 19.8421C72.5754 20.1212 73.0233 20.2607 73.5812 20.2607C74.507 20.2607 75.234 19.9743 75.7624 19.4015C76.2912 18.8287 76.5631 18.0796 76.5776 17.1542V16.6916L74.4629 16.9339C73.5667 17.0367 72.8837 17.2497 72.4136 17.5729C71.9584 17.8813 71.7306 18.2779 71.7306 18.7626Z" fill="#131313"/>
<path d="M59.1167 10.8312H61.5625L64.3161 19.1371L67.0701 10.8312H69.5377L65.4841 21.9352H63.1707L59.1167 10.8312Z" fill="#131313"/>
<path d="M55.938 10.8312H58.3396V21.9351H55.938V10.8312ZM57.1279 8.98053C56.6873 8.98053 56.3199 8.83367 56.0262 8.5399C55.7324 8.23144 55.5856 7.86428 55.5856 7.43832C55.5856 6.99769 55.7324 6.63048 56.0262 6.33675C56.3199 6.02829 56.6873 5.87406 57.1279 5.87406C57.583 5.87406 57.9577 6.02829 58.2514 6.33675C58.5597 6.63048 58.7138 6.99769 58.7138 7.43832C58.7138 7.86428 58.5597 8.23144 58.2514 8.5399C57.9577 8.83367 57.583 8.98053 57.1279 8.98053Z" fill="#131313"/>
<path d="M54.9799 13.1665C54.5834 12.9903 54.106 12.9021 53.5481 12.9021C52.6664 12.9021 51.9321 13.3134 51.3447 14.1359C50.7718 14.9437 50.4853 16.1628 50.4853 17.7932V21.9351H48.0841V10.8312H50.4853V12.9462C50.779 12.2853 51.2492 11.7418 51.8958 11.3159C52.5419 10.8752 53.2025 10.6549 53.8782 10.6549C54.3779 10.6549 54.7889 10.721 55.1122 10.8532L54.9799 13.1665Z" fill="#131313"/>
<path d="M35.9512 6.51299H42.0318C43.0453 6.51299 43.9342 6.70392 44.6976 7.08581C45.4615 7.45301 46.0489 7.98909 46.4604 8.69413C46.8715 9.38444 47.077 10.1923 47.077 11.1176C47.077 12.0429 46.8715 12.8581 46.4604 13.5631C46.0489 14.2534 45.4615 14.7895 44.6976 15.1714C43.9342 15.5386 43.0453 15.7222 42.0318 15.7222H38.5511V21.9351H35.9512V6.51299ZM41.8558 13.475C42.6633 13.475 43.2949 13.2693 43.7505 12.8581C44.2202 12.4322 44.4552 11.852 44.4552 11.1176C44.4552 10.3832 44.2202 9.81039 43.7505 9.39912C43.2949 8.97317 42.6633 8.7602 41.8558 8.7602H38.5511V13.475H41.8558Z" fill="#131313"/>
</svg>
