<svg width="24" height="24" viewBox="0 0 24 24" fill="none" xmlns="http://www.w3.org/2000/svg">
<path d="M11.9754 3.98438C11.1091 3.98438 10.4004 4.69312 10.4004 5.55937C10.4004 6.42562 11.1091 7.13437 11.9754 7.13437C12.8416 7.13437 13.5504 6.42562 13.5504 5.55937C13.5504 4.69312 12.8416 3.98438 11.9754 3.98438ZM11.9754 16.8994C11.1091 16.8994 10.4004 17.6081 10.4004 18.4744C10.4004 19.3406 11.1091 20.0494 11.9754 20.0494C12.8416 20.0494 13.5504 19.3406 13.5504 18.4744C13.5504 17.6081 12.8416 16.8994 11.9754 16.8994ZM11.9754 10.4419C11.1091 10.4419 10.4004 11.1506 10.4004 12.0169C10.4004 12.8831 11.1091 13.5919 11.9754 13.5919C12.8416 13.5919 13.5504 12.8831 13.5504 12.0169C13.5504 11.1506 12.8416 10.4419 11.9754 10.4419Z" fill="currentColor"/>
</svg>
